<svg width="374" height="366" viewBox="0 0 374 366" fill="none" xmlns="http://www.w3.org/2000/svg">
<path d="M165.27 144.08C166.32 143.5 166.7 142.17 166.11 141.12C165.53 140.07 164.2 139.69 163.15 140.28C162.1 140.86 161.72 142.19 162.31 143.24C162.89 144.29 164.22 144.67 165.27 144.08Z" fill="white"/>
<path d="M172.473 155.092C173.642 153.85 173.583 151.894 172.34 150.724C171.097 149.555 169.142 149.614 167.972 150.857C166.803 152.1 166.862 154.056 168.105 155.225C169.348 156.395 171.303 156.335 172.473 155.092Z" fill="white"/>
<path d="M208.63 222.02C207.58 222.6 207.2 223.93 207.79 224.98C208.37 226.03 209.7 226.41 210.75 225.82C211.8 225.24 212.18 223.91 211.59 222.86C211.01 221.81 209.68 221.43 208.63 222.02Z" fill="white"/>
<path d="M202.17 210.409C200.68 211.239 200.14 213.119 200.97 214.609C201.8 216.099 203.68 216.639 205.17 215.809C206.66 214.979 207.2 213.099 206.37 211.609C205.54 210.119 203.66 209.579 202.17 210.409Z" fill="white"/>
<path d="M164.02 221.291C162.99 220.671 161.65 221.011 161.04 222.041C160.42 223.071 160.76 224.411 161.79 225.021C162.82 225.641 164.16 225.301 164.77 224.271C165.39 223.241 165.05 221.901 164.02 221.291Z" fill="white"/>
<path d="M170.85 209.9C169.39 209.02 167.49 209.5 166.61 210.96C165.73 212.42 166.21 214.32 167.67 215.2C169.13 216.08 171.03 215.6 171.91 214.14C172.79 212.68 172.31 210.78 170.85 209.9Z" fill="white"/>
<path d="M210.99 145.12C212.194 145.12 213.17 144.144 213.17 142.94C213.17 141.736 212.194 140.76 210.99 140.76C209.786 140.76 208.81 141.736 208.81 142.94C208.81 144.144 209.786 145.12 210.99 145.12Z" fill="white"/>
<path d="M206.808 155.794C208.031 154.603 208.056 152.647 206.866 151.424C205.675 150.202 203.719 150.176 202.496 151.367C201.274 152.558 201.248 154.514 202.439 155.737C203.63 156.959 205.586 156.985 206.808 155.794Z" fill="white"/>
<path d="M140.18 185.229C141.384 185.229 142.36 184.253 142.36 183.049C142.36 181.845 141.384 180.869 140.18 180.869C138.976 180.869 138 181.845 138 183.049C138 184.253 138.976 185.229 140.18 185.229Z" fill="white"/>
<path d="M152.54 186.141C154.246 186.141 155.63 184.757 155.63 183.051C155.63 181.344 154.246 179.961 152.54 179.961C150.833 179.961 149.45 181.344 149.45 183.051C149.45 184.757 150.833 186.141 152.54 186.141Z" fill="white"/>
<path d="M233.71 185.229C234.914 185.229 235.89 184.253 235.89 183.049C235.89 181.845 234.914 180.869 233.71 180.869C232.506 180.869 231.53 181.845 231.53 183.049C231.53 184.253 232.506 185.229 233.71 185.229Z" fill="white"/>
<path d="M221.35 186.141C223.057 186.141 224.44 184.757 224.44 183.051C224.44 181.344 223.057 179.961 221.35 179.961C219.643 179.961 218.26 181.344 218.26 183.051C218.26 184.757 219.643 186.141 221.35 186.141Z" fill="white"/>
<path d="M151.432 161.752C153.005 161.618 154.172 160.233 154.037 158.659C153.903 157.085 152.518 155.918 150.944 156.053C149.37 156.188 148.204 157.573 148.338 159.146C148.473 160.72 149.858 161.887 151.432 161.752Z" fill="white"/>
<path d="M167.146 169.551C168.325 167.788 167.852 165.403 166.089 164.224C164.327 163.045 161.942 163.518 160.762 165.281C159.583 167.044 160.056 169.429 161.819 170.608C163.582 171.787 165.967 171.314 167.146 169.551Z" fill="white"/>
<path d="M221.31 204.24C219.89 204.94 219.3 206.65 220 208.07C220.7 209.49 222.41 210.08 223.83 209.38C225.25 208.68 225.84 206.97 225.14 205.55C224.44 204.13 222.73 203.54 221.31 204.24Z" fill="white"/>
<path d="M208.1 194.781C206.2 195.711 205.41 198.011 206.34 199.921C207.27 201.821 209.57 202.611 211.48 201.681C213.38 200.751 214.17 198.451 213.24 196.541C212.31 194.641 210.01 193.851 208.1 194.781Z" fill="white"/>
<path d="M151.27 202.199C149.89 201.419 148.15 201.909 147.37 203.289C146.59 204.669 147.08 206.409 148.46 207.189C149.84 207.969 151.58 207.479 152.36 206.099C153.14 204.719 152.65 202.979 151.27 202.199Z" fill="white"/>
<path d="M165.01 193.53C163.16 192.49 160.82 193.14 159.78 194.99C158.74 196.84 159.39 199.18 161.24 200.22C163.09 201.26 165.43 200.61 166.47 198.76C167.51 196.91 166.86 194.57 165.01 193.53Z" fill="white"/>
<path d="M223.88 158.141C222.3 158.161 221.03 159.451 221.04 161.031C221.06 162.611 222.35 163.881 223.93 163.871C225.51 163.851 226.78 162.561 226.77 160.981C226.75 159.401 225.46 158.131 223.88 158.141Z" fill="white"/>
<path d="M214.413 169.424C214.752 167.33 213.33 165.358 211.236 165.019C209.143 164.68 207.171 166.102 206.832 168.196C206.493 170.289 207.915 172.261 210.008 172.6C212.102 172.939 214.074 171.517 214.413 169.424Z" fill="white"/>
<path d="M187.297 228.657C188.86 228.428 189.941 226.975 189.712 225.412C189.483 223.849 188.031 222.768 186.468 222.997C184.905 223.226 183.824 224.679 184.053 226.242C184.282 227.805 185.735 228.886 187.297 228.657Z" fill="white"/>
<path d="M187.426 214.186C189.526 213.895 190.993 211.956 190.702 209.855C190.411 207.754 188.472 206.287 186.371 206.578C184.271 206.869 182.804 208.808 183.095 210.909C183.386 213.01 185.325 214.477 187.426 214.186Z" fill="white"/>
<path d="M186.88 142.72C188.46 142.72 189.74 141.44 189.74 139.86C189.74 138.28 188.46 137 186.88 137C185.3 137 184.02 138.28 184.02 139.86C184.02 141.44 185.3 142.72 186.88 142.72Z" fill="white"/>
<path d="M189.785 157.7C191.162 156.087 190.97 153.663 189.357 152.287C187.743 150.91 185.319 151.102 183.943 152.715C182.566 154.329 182.758 156.753 184.372 158.129C185.985 159.506 188.409 159.314 189.785 157.7Z" fill="white"/>
<path d="M199.547 173.905C201.856 171.099 201.454 166.952 198.648 164.643C195.843 162.333 191.696 162.735 189.386 165.541C187.077 168.347 187.479 172.493 190.285 174.803C193.09 177.113 197.237 176.71 199.547 173.905Z" fill="white"/>
<path d="M200.517 198.988C201.971 195.657 200.45 191.779 197.119 190.325C193.788 188.871 189.91 190.393 188.456 193.723C187.003 197.054 188.524 200.932 191.855 202.386C195.185 203.84 199.064 202.318 200.517 198.988Z" fill="white"/>
<path d="M202.87 190.18C206.504 190.18 209.45 187.234 209.45 183.6C209.45 179.965 206.504 177.02 202.87 177.02C199.236 177.02 196.29 179.965 196.29 183.6C196.29 187.234 199.236 190.18 202.87 190.18Z" fill="white"/>
<path d="M179.29 176.32C182.924 176.32 185.87 173.374 185.87 169.74C185.87 166.106 182.924 163.16 179.29 163.16C175.656 163.16 172.71 166.106 172.71 169.74C172.71 173.374 175.656 176.32 179.29 176.32Z" fill="white"/>
<path d="M185.718 197.719C186.477 194.165 184.211 190.669 180.657 189.91C177.103 189.151 173.607 191.417 172.848 194.971C172.089 198.525 174.356 202.021 177.91 202.78C181.463 203.539 184.96 201.273 185.718 197.719Z" fill="white"/>
<path d="M170.9 190.18C174.534 190.18 177.48 187.234 177.48 183.6C177.48 179.965 174.534 177.02 170.9 177.02C167.266 177.02 164.32 179.965 164.32 183.6C164.32 187.234 167.266 190.18 170.9 190.18Z" fill="white"/>
<mask id="mask0_150_58977" style="mask-type:alpha" maskUnits="userSpaceOnUse" x="0" y="0" width="374" height="366">
<rect x="0.5" y="0.5" width="373" height="365" rx="9.5" fill="#070707" stroke="#2A2A2A"/>
</mask>
<g mask="url(#mask0_150_58977)">
</g>
</svg>
