<svg xmlns="http://www.w3.org/2000/svg" width="16" height="15" viewBox="0 0 16 15" fill="none">
  <g clip-path="url(#clip0_486_2300)">
    <path fill-rule="evenodd" clip-rule="evenodd" d="M7.79626 0C5.75939 0 5.50407 0.00874912 4.70407 0.0449991C3.90563 0.0815616 3.36032 0.208436 2.88345 0.393748C2.39032 0.585311 1.97189 0.841875 1.55532 1.25875C1.13814 1.67562 0.88158 2.09406 0.690018 2.58719C0.504705 3.06438 0.377519 3.60937 0.341269 4.40781C0.305019 5.20781 0.296265 5.46312 0.296265 7.5C0.296265 9.53687 0.305019 9.79219 0.341269 10.5922C0.377831 11.3906 0.504705 11.9359 0.690018 12.4128C0.88158 12.9059 1.13814 13.3244 1.55502 13.7409C1.97189 14.1581 2.39032 14.4147 2.88345 14.6066C3.36064 14.7916 3.90563 14.9184 4.70407 14.955C5.50407 14.9913 5.75939 15 7.79626 15C9.83314 15 10.0885 14.9913 10.8885 14.955C11.6869 14.9184 12.2322 14.7916 12.7091 14.6063C13.2022 14.4147 13.6206 14.1581 14.0372 13.7413C14.4544 13.3244 14.711 12.9059 14.9028 12.4128C15.0878 11.9356 15.2147 11.3906 15.2513 10.5922C15.2875 9.79219 15.2963 9.53687 15.2963 7.5C15.2963 5.46312 15.2875 5.20781 15.2513 4.40781C15.2147 3.60937 15.0878 3.06406 14.9025 2.58719C14.7109 2.09406 14.4544 1.67563 14.0375 1.25906C13.6206 0.841877 13.2022 0.585311 12.7091 0.393748C12.2319 0.208436 11.6869 0.0812491 10.8885 0.0449991C10.0885 0.00874912 9.83314 0 7.79626 0ZM7.79626 1.35125C9.79876 1.35125 10.036 1.35906 10.8269 1.395C11.5581 1.42844 11.955 1.55063 12.2197 1.65344C12.5697 1.78938 12.8197 1.95187 13.0822 2.21437C13.3444 2.47687 13.5069 2.72687 13.6428 3.07687C13.7459 3.34094 13.8678 3.73813 13.9013 4.46938C13.9372 5.26 13.945 5.4975 13.945 7.5C13.945 9.5025 13.9372 9.73969 13.9013 10.5306C13.8678 11.2619 13.7456 11.6587 13.6428 11.9234C13.5069 12.2734 13.3444 12.5234 13.0819 12.7859C12.8194 13.0481 12.5694 13.2106 12.2194 13.3466C11.9553 13.4497 11.5581 13.5716 10.8269 13.605C10.0363 13.6409 9.79876 13.6487 7.79626 13.6487C5.79345 13.6487 5.55627 13.6409 4.76564 13.605C4.03439 13.5716 3.63752 13.4494 3.37283 13.3466C3.02283 13.2106 2.77282 13.0481 2.51032 12.7856C2.24814 12.5231 2.08563 12.2731 1.9497 11.9231C1.84657 11.6591 1.7247 11.2619 1.69126 10.5306C1.65532 9.74 1.64752 9.5025 1.64752 7.5C1.64752 5.4975 1.65532 5.26031 1.69126 4.46938C1.7247 3.73813 1.84688 3.34125 1.9497 3.07656C2.08563 2.72656 2.24814 2.47656 2.51064 2.21406C2.77314 1.95188 3.02314 1.78938 3.37314 1.65344C3.6372 1.55031 4.03439 1.42844 4.76564 1.395C5.55627 1.35906 5.79376 1.35125 7.79626 1.35125ZM7.79626 3.64875C5.66908 3.64875 3.94501 5.37281 3.94501 7.5C3.94501 9.62719 5.66908 11.3513 7.79626 11.3513C9.92345 11.3513 11.6475 9.62719 11.6475 7.5C11.6475 5.37281 9.92345 3.64875 7.79626 3.64875ZM7.79626 10C7.13322 10 6.49734 9.73661 6.0285 9.26777C5.55965 8.79893 5.29626 8.16304 5.29626 7.5C5.29626 6.83696 5.55965 6.20107 6.0285 5.73223C6.49734 5.26339 7.13322 5 7.79626 5C8.45931 5 9.09519 5.26339 9.56403 5.73223C10.0329 6.20107 10.2963 6.83696 10.2963 7.5C10.2963 8.16304 10.0329 8.79893 9.56403 9.26777C9.09519 9.73661 8.45931 10 7.79626 10ZM12.6997 3.49656C12.6997 3.73526 12.6049 3.96417 12.4361 4.13296C12.2673 4.30174 12.0384 4.39656 11.7997 4.39656C11.561 4.39656 11.3321 4.30174 11.1633 4.13296C10.9945 3.96417 10.8997 3.73526 10.8997 3.49656C10.8997 3.25787 10.9945 3.02895 11.1633 2.86016C11.3321 2.69138 11.561 2.59656 11.7997 2.59656C12.0384 2.59656 12.2673 2.69138 12.4361 2.86016C12.6049 3.02895 12.6997 3.25787 12.6997 3.49656Z" fill="white"/>
  </g>
  <defs>
    <clipPath id="clip0_486_2300">
      <rect width="15" height="15" fill="white" transform="translate(0.296265)"/>
    </clipPath>
  </defs>
</svg>