<?xml version="1.0" encoding="utf-8"?>
<!-- Generator: Adobe Illustrator 26.0.1, SVG Export Plug-In . SVG Version: 6.00 Build 0)  -->
<svg version="1.1" id="Layer_1" xmlns="http://www.w3.org/2000/svg" xmlns:xlink="http://www.w3.org/1999/xlink" x="0px" y="0px"
	 viewBox="0 0 1920 1080" style="enable-background:new 0 0 1920 1080;" xml:space="preserve">
<g>
	<path d="M603.61,449.56c324.92,0.51,649.84,0.62,974.73,0.1c67.37-0.1,143.03-1.87,146.29,86.88
		c3.59,97.63-75.25,97.45-147.21,97.35c-354.43-0.46-708.87-0.21-1091.15-0.21c96.09,98.4,174.44,178.88,253.08,259.11
		c49.1,50.07,70.94,101.94,22.76,150.09c-48.17,48.17-101.4,30.39-149.5-16.3C453.6,872.26,111.25,593.52,111.25,543.24
		c0-51.95,362.8-356.95,540.17-518.69c24.87-22.66,84.95-22.48,116.42,8.7c31.49,31.18,30.23,89.75,7.75,114.26
		c-87.36,95.09-195.95,207.63-294.74,303.64"/>
</g>
</svg>
