<svg xmlns="http://www.w3.org/2000/svg" width="13" height="12" viewBox="0 0 13 12" fill="none">
  <g clip-path="url(#clip0_486_2294)">
    <rect width="12.3095" height="11.7966" transform="translate(0.140259 0.140137)" fill="#0F0F0F"/>
    <path d="M0.140259 1.51045C0.140259 1.11325 0.278883 0.785566 0.556121 0.527399C0.833358 0.26922 1.19378 0.140137 1.63736 0.140137C2.07303 0.140137 2.42552 0.26723 2.69484 0.521441C2.97208 0.783588 3.1107 1.12517 3.1107 1.5462C3.1107 1.9275 2.97605 2.24525 2.70672 2.49946C2.42948 2.7616 2.06511 2.89268 1.6136 2.89268H1.60172C1.16605 2.89268 0.813563 2.7616 0.544239 2.49946C0.274915 2.23731 0.140259 1.90764 0.140259 1.51045ZM0.294722 11.9367V3.97701H2.93248V11.9367H0.294722ZM4.39393 11.9367H7.03169V7.49216C7.03169 7.21412 7.06338 6.99964 7.12674 6.84871C7.23763 6.57862 7.40596 6.35023 7.63172 6.16355C7.85747 5.97687 8.14065 5.88353 8.48126 5.88353C9.36844 5.88353 9.81202 6.48329 9.81202 7.68281V11.9367H12.4498V7.373C12.4498 6.19731 12.1725 5.30562 11.6181 4.69792C11.0636 4.09021 10.3309 3.78636 9.41992 3.78636C8.39809 3.78636 7.60201 4.22724 7.03169 5.10901V5.13284H7.01981L7.03169 5.10901V3.97701H4.39393C4.40977 4.23121 4.4177 5.02162 4.4177 6.34825C4.4177 7.67487 4.40977 9.53769 4.39393 11.9367Z" fill="white"/>
  </g>
  <defs>
    <clipPath id="clip0_486_2294">
      <rect width="12.3095" height="11.7966" fill="white" transform="translate(0.140259 0.140137)"/>
    </clipPath>
  </defs>
</svg>