<svg xmlns="http://www.w3.org/2000/svg" width="17" height="16" viewBox="0 0 17 16" fill="none">
  <path d="M3.25545 13.3332C2.88879 13.3332 2.5749 13.2026 2.31379 12.9415C2.05267 12.6804 1.92212 12.3665 1.92212 11.9998V3.99984C1.92212 3.63317 2.05267 3.31928 2.31379 3.05817C2.5749 2.79706 2.88879 2.6665 3.25545 2.6665H13.9221C14.2888 2.6665 14.6027 2.79706 14.8638 3.05817C15.1249 3.31928 15.2555 3.63317 15.2555 3.99984V11.9998C15.2555 12.3665 15.1249 12.6804 14.8638 12.9415C14.6027 13.2026 14.2888 13.3332 13.9221 13.3332H3.25545ZM8.58879 8.6665L13.9221 5.33317V3.99984L8.58879 7.33317L3.25545 3.99984V5.33317L8.58879 8.6665Z" fill="white"/>
</svg>