<svg width="465" height="23" viewBox="0 0 465 23" fill="none" xmlns="http://www.w3.org/2000/svg">
<rect y="0.216797" width="2.75053" height="21.9559" rx="1.37526" fill="#757575"/>
<rect x="8.25195" y="4.60742" width="2.75053" height="13.1736" rx="1.37526" fill="#757575"/>
<rect x="16.5039" y="2.30273" width="2.75053" height="17.7843" rx="1.37526" fill="#757575"/>
<rect x="24.7539" y="4.60742" width="2.75053" height="13.1736" rx="1.37526" fill="#757575"/>
<rect x="33.0078" y="0.216797" width="2.75053" height="21.9559" rx="1.37526" fill="#757575"/>
<rect x="41.2578" y="8.12109" width="2.75053" height="6.14766" rx="1.37526" fill="#757575"/>
<rect x="49.5098" y="5.70508" width="2.75053" height="10.978" rx="1.37526" fill="#757575"/>
<rect x="57.7617" y="3.50977" width="2.75053" height="15.3692" rx="1.37526" fill="#757575"/>
<rect x="66.0117" y="0.216797" width="2.75053" height="21.9559" rx="1.37526" fill="#757575"/>
<rect x="74.2656" y="0.216797" width="2.75053" height="21.9559" rx="1.37526" fill="#757575"/>
<rect x="82.5156" y="4.60742" width="2.75053" height="13.1736" rx="1.37526" fill="#757575"/>
<rect x="90.7676" y="2.30273" width="2.75053" height="17.7843" rx="1.37526" fill="#757575"/>
<rect x="99.0195" y="6.80298" width="2.75053" height="8.78238" rx="1.37526" fill="#757575"/>
<rect x="107.27" y="0.216797" width="2.75053" height="21.9559" rx="1.37526" fill="#757575"/>
<rect x="115.521" y="4.60742" width="2.75053" height="13.1736" rx="1.37526" fill="#757575"/>
<rect x="123.773" y="3.50977" width="2.75053" height="15.3692" rx="1.37526" fill="#757575"/>
<rect x="132.025" y="7.90039" width="2.75053" height="6.58678" rx="1.37526" fill="#757575"/>
<rect x="140.277" y="0.216797" width="2.75053" height="21.9559" rx="1.37526" fill="#757575"/>
<rect x="148.527" y="0.216797" width="2.75053" height="21.9559" rx="1.37526" fill="#757575"/>
<rect x="156.779" y="4.60742" width="2.75053" height="13.1736" rx="1.37526" fill="#757575"/>
<rect x="165.031" y="6.80298" width="2.75053" height="8.78238" rx="1.37526" fill="#757575"/>
<rect x="173.109" y="0.216797" width="2.75053" height="21.9559" rx="1.37526" fill="#757575"/>
<rect x="181.359" y="4.60742" width="2.75053" height="13.1736" rx="1.37526" fill="#757575"/>
<rect x="189.613" y="2.30273" width="2.75053" height="17.7843" rx="1.37526" fill="#757575"/>
<rect x="197.863" y="4.60742" width="2.75053" height="13.1736" rx="1.37526" fill="#757575"/>
<rect x="206.117" y="0.216797" width="2.75053" height="21.9559" rx="1.37526" fill="#757575"/>
<rect x="214.367" y="8.12109" width="2.75053" height="6.14766" rx="1.37526" fill="#757575"/>
<rect x="222.617" y="5.70508" width="2.75053" height="10.978" rx="1.37526" fill="#757575"/>
<rect x="230.871" y="3.50977" width="2.75053" height="15.3692" rx="1.37526" fill="#757575"/>
<rect x="239.121" y="0.216797" width="2.75053" height="21.9559" rx="1.37526" fill="#757575"/>
<rect x="247.375" y="0.216797" width="2.75053" height="21.9559" rx="1.37526" fill="#757575"/>
<rect x="255.625" y="4.60742" width="2.75053" height="13.1736" rx="1.37526" fill="#757575"/>
<rect x="263.877" y="2.30273" width="2.75053" height="17.7843" rx="1.37526" fill="#757575"/>
<rect x="272.129" y="6.80273" width="2.75053" height="8.78238" rx="1.37526" fill="#757575"/>
<rect x="280.379" y="0.216797" width="2.75053" height="21.9559" rx="1.37526" fill="#757575"/>
<rect x="288.633" y="4.60742" width="2.75053" height="13.1736" rx="1.37526" fill="#757575"/>
<rect x="296.883" y="3.50977" width="2.75053" height="15.3692" rx="1.37526" fill="#757575"/>
<rect x="305.133" y="7.90039" width="2.75053" height="6.58678" rx="1.37526" fill="#757575"/>
<rect x="313.387" y="0.216797" width="2.75053" height="21.9559" rx="1.37526" fill="#757575"/>
<rect x="321.637" y="0.216797" width="2.75053" height="21.9559" rx="1.37526" fill="#757575"/>
<rect x="329.891" y="4.60742" width="2.75053" height="13.1736" rx="1.37526" fill="#757575"/>
<rect x="338.141" y="6.80273" width="2.75053" height="8.78238" rx="1.37526" fill="#757575"/>
<rect x="346.217" y="0.216797" width="2.75053" height="21.9559" rx="1.37526" fill="#757575"/>
<rect x="354.469" y="4.60742" width="2.75053" height="13.1736" rx="1.37526" fill="#757575"/>
<rect x="362.719" y="2.30273" width="2.75053" height="17.7843" rx="1.37526" fill="#757575"/>
<rect x="370.973" y="4.60742" width="2.75053" height="13.1736" rx="1.37526" fill="#757575"/>
<rect x="379.223" y="0.216797" width="2.75053" height="21.9559" rx="1.37526" fill="#757575"/>
<rect x="387.475" y="8.12109" width="2.75053" height="6.14766" rx="1.37526" fill="#757575"/>
<rect x="395.727" y="5.70508" width="2.75053" height="10.978" rx="1.37526" fill="#757575"/>
<rect x="403.977" y="3.50977" width="2.75053" height="15.3692" rx="1.37526" fill="#757575"/>
<rect x="412.23" y="0.216797" width="2.75053" height="21.9559" rx="1.37526" fill="#757575"/>
<rect x="420.48" y="0.216797" width="2.75053" height="21.9559" rx="1.37526" fill="#757575"/>
<rect x="428.732" y="4.60742" width="2.75053" height="13.1736" rx="1.37526" fill="#757575"/>
<rect x="436.984" y="2.30273" width="2.75053" height="17.7843" rx="1.37526" fill="#757575"/>
<rect x="445.234" y="6.80273" width="2.75053" height="8.78238" rx="1.37526" fill="#757575"/>
<rect x="453.488" y="0.216797" width="2.75053" height="21.9559" rx="1.37526" fill="#757575"/>
<rect x="461.738" y="4.60742" width="2.75053" height="13.1736" rx="1.37526" fill="#757575"/>
</svg>
