<svg xmlns="http://www.w3.org/2000/svg" width="113" height="77" viewBox="0 0 113 77" fill="#ffffff33">
  <path d="M64.8084 76V51.0727C64.8084 37.6493 68.7964 26.6104 76.7725 17.9558C84.7485 9.3013 96.491 3.64935 112 1V16.6312C104.689 18.0442 98.9281 20.6935 94.7186 24.5792C90.7305 28.2883 88.1826 32.8805 87.0749 38.3558H105.353V76H64.8084ZM1 76V51.0727C1 37.6493 4.98802 26.6104 12.9641 17.9558C20.9401 9.3013 32.6826 3.64935 48.1916 1V16.6312C40.8802 18.0442 35.1198 20.6935 30.9102 24.5792C26.9222 28.2883 24.3743 32.8805 23.2665 38.3558H41.5449V76H1Z" fill="#2D2D2D" fill-opacity="0.33"/>
  <path d="M64.5084 76V76.3H64.8084H105.353H105.653V76V38.3558V38.0558H105.353H87.444C88.577 32.7991 91.0692 28.3834 94.9221 24.7997C99.08 20.9616 104.784 18.3312 112.057 16.9257L112.3 16.8787V16.6312V1V0.644406L111.949 0.704284C96.3971 3.36105 84.5859 9.03509 76.5518 17.7525C68.5175 26.4703 64.5084 37.5854 64.5084 51.0727V76ZM0.7 76V76.3H1H41.5449H41.8449V76V38.3558V38.0558H41.5449H23.6356C24.7687 32.7988 27.2611 28.3828 31.1144 24.799C35.2723 20.9613 40.9762 18.3312 48.2485 16.9257L48.4916 16.8787V16.6312V1V0.644406L48.1411 0.704284C32.5887 3.36105 20.7775 9.03509 12.7435 17.7525C4.70915 26.4703 0.7 37.5854 0.7 51.0727V76Z" stroke="url(#paint0_linear_486_2326)" stroke-opacity="0.5" stroke-width="0.6"/>
  <defs>
    <linearGradient id="paint0_linear_486_2326" x1="-90.1296" y1="-216.222" x2="69.8564" y2="142.57" gradientUnits="userSpaceOnUse">
      <stop stop-color="white"/>
      <stop offset="1" stop-color="white" stop-opacity="0"/>
    </linearGradient>
  </defs>
</svg>